<?xml version="1.0" encoding="utf-8"?>
<!-- Generator: Adobe Illustrator 22.0.1, SVG Export Plug-In . SVG Version: 6.00 Build 0)  -->
<svg version="1.1" id="Layer_1" xmlns="http://www.w3.org/2000/svg" xmlns:xlink="http://www.w3.org/1999/xlink" x="0px" y="0px"
	 viewBox="0 0 963.3 306.5" style="enable-background:new 0 0 963.3 306.5;" xml:space="preserve">
<style type="text/css">
	.st0{fill:none;stroke:#5E5E5E;stroke-width:3;stroke-linecap:square;stroke-linejoin:bevel;stroke-miterlimit:10;}
	.st1{fill:none;stroke:#5E5E5E;stroke-width:2.5;stroke-linecap:square;stroke-linejoin:bevel;stroke-miterlimit:10;}
	.st2{fill:#5E5E5E;}
	.st3{fill:none;}
	.st4{font-family:'YuGothicUI-Semilight';}
	.st5{font-size:39.129px;}
	.st6{letter-spacing:7.4;}
	.st7{font-family:'MyriadPro-Regular';}
	.st8{font-size:18.6329px;}
	.st9{letter-spacing:3.2;}
</style>
<g>
	<g>
		<rect x="314" y="248" class="st3" width="335.2" height="74.5"/>
		<text transform="matrix(0.9469 0 0 1 349.5084 276.9346)" class="st2 st4 st5 st6">APARTMENT</text>
		<rect x="314" y="287.1" class="st3" width="335.2" height="25.1"/>
		<text transform="matrix(0.9469 0 0 1 410.4098 300.3379)" class="st2 st7 st8 st9">MANAGEMENT</text>
		<g>
			<g>
				<polygon class="st0" points="393.1,232.1 426.8,232.1 426.8,57.9 393.1,79.6 				"/>
				<g>
					<rect x="400.5" y="219.6" class="st2" width="19.1" height="6.3"/>
					<polygon class="st2" points="400.5,202.4 419.6,200.9 419.6,207.2 400.5,208.7 					"/>
					<polygon class="st2" points="400.5,185.2 419.6,182.2 419.6,188.5 400.5,191.5 					"/>
					<polygon class="st2" points="400.5,168.1 419.6,163.5 419.6,169.8 400.5,174.3 					"/>
					<polygon class="st2" points="400.5,150.9 419.6,144.8 419.6,151.1 400.5,157.2 					"/>
					<polygon class="st2" points="400.5,133.7 419.6,126.1 419.6,132.4 400.5,140 					"/>
					<polygon class="st2" points="400.5,116.6 419.6,107.4 419.6,113.7 400.5,122.8 					"/>
					<polygon class="st2" points="400.5,99.4 419.6,88.7 419.6,95 400.5,105.7 					"/>
					<polygon class="st2" points="400.5,82.2 419.6,70.1 419.6,76.3 400.5,88.5 					"/>
				</g>
				<polygon class="st0" points="448.1,232.1 426.8,232.1 426.8,57.9 448.1,61.8 				"/>
			</g>
			<g>
				<polygon class="st0" points="570.2,232.1 536.5,232.1 536.5,57.9 570.2,79.6 				"/>
				<g>
					<rect x="543.7" y="219.6" class="st2" width="19.1" height="6.3"/>
					<polygon class="st2" points="562.7,202.4 543.7,200.9 543.7,207.2 562.7,208.7 					"/>
					<polygon class="st2" points="562.7,185.2 543.7,182.2 543.7,188.5 562.7,191.5 					"/>
					<polygon class="st2" points="562.7,168.1 543.7,163.5 543.7,169.8 562.7,174.3 					"/>
					<polygon class="st2" points="562.7,150.9 543.7,144.8 543.7,151.1 562.7,157.2 					"/>
					<polygon class="st2" points="562.7,133.7 543.7,126.1 543.7,132.4 562.7,140 					"/>
					<polygon class="st2" points="562.7,116.6 543.7,107.4 543.7,113.7 562.7,122.8 					"/>
					<polygon class="st2" points="562.7,99.4 543.7,88.7 543.7,95 562.7,105.7 					"/>
					<polygon class="st2" points="562.7,82.2 543.7,70.1 543.7,76.3 562.7,88.5 					"/>
				</g>
				<polygon class="st0" points="515.1,232.1 536.5,232.1 536.5,57.9 515.1,61.8 				"/>
			</g>
			<polygon class="st0" points="514.9,232.1 448.4,232.1 448.4,26.6 451.9,24.6 479,9.3 481.6,7.8 514.9,26.6 			"/>
			<g>
				<line class="st0" x1="451.9" y1="36.7" x2="478.9" y2="21.4"/>
				<line class="st0" x1="451.8" y1="47.1" x2="479" y2="32.7"/>
				<line class="st0" x1="451.7" y1="57.6" x2="479.1" y2="43.9"/>
				<line class="st0" x1="451.7" y1="68" x2="479.1" y2="55.2"/>
				<line class="st0" x1="451.6" y1="78.4" x2="479.2" y2="66.5"/>
				<line class="st0" x1="451.6" y1="88.8" x2="479.3" y2="77.8"/>
				<line class="st0" x1="451.5" y1="99.2" x2="479.3" y2="89"/>
				<line class="st0" x1="451.4" y1="109.7" x2="479.4" y2="100.3"/>
				<line class="st0" x1="451.4" y1="120.1" x2="479.5" y2="111.6"/>
				<line class="st0" x1="451.3" y1="130.5" x2="479.5" y2="122.8"/>
				<line class="st0" x1="451.3" y1="140.9" x2="479.6" y2="134.1"/>
				<line class="st0" x1="451.2" y1="151.4" x2="479.7" y2="145.4"/>
				<line class="st0" x1="451.2" y1="161.8" x2="479.7" y2="156.7"/>
				<line class="st0" x1="451.1" y1="172.2" x2="479.8" y2="167.9"/>
				<line class="st0" x1="451" y1="182.6" x2="479.9" y2="179.2"/>
				<line class="st0" x1="451" y1="193" x2="480" y2="190.5"/>
				<line class="st0" x1="450.9" y1="203.5" x2="480" y2="201.8"/>
				<line class="st0" x1="450.9" y1="213.9" x2="480.1" y2="213"/>
				<line class="st0" x1="450.8" y1="224.3" x2="480.2" y2="224.3"/>
			</g>
			<line class="st0" x1="481.6" y1="8.7" x2="481.6" y2="232.1"/>
		</g>
		<line class="st0" x1="364.9" y1="232.4" x2="598.4" y2="232.4"/>
	</g>
	<g>
		<line class="st0" x1="381.2" y1="232.2" x2="381.2" y2="218.7"/>
		<path class="st2" d="M386.8,205.2c0.9-1.3,1.5-2.8,1.5-4.5c0-4.1-3.2-7.5-7.1-7.5c-3.9,0-7.1,3.3-7.1,7.5c0,1.7,0.6,3.3,1.5,4.5
			c-2.1,1.8-3.4,4.5-3.4,7.5c0,5.3,4.1,9.6,9,9.6c5,0,9-4.3,9-9.6C390.2,209.7,388.9,207,386.8,205.2z"/>
	</g>
	<g>
		<line class="st0" x1="584.4" y1="232.2" x2="584.4" y2="220.4"/>
		<path class="st2" d="M589.3,208.5c0.8-1.1,1.3-2.5,1.3-4c0-3.6-2.8-6.6-6.2-6.6c-3.4,0-6.2,2.9-6.2,6.6c0,1.5,0.5,2.9,1.3,4
			c-1.8,1.5-3,3.9-3,6.6c0,4.6,3.6,8.4,7.9,8.4s7.9-3.8,7.9-8.4C592.3,212.4,591.1,210.1,589.3,208.5z"/>
	</g>
</g>
</svg>
